<?xml version="1.0" encoding="UTF-8" standalone="no"?>
<svg
   xmlns:dc="http://purl.org/dc/elements/1.1/"
   xmlns:cc="http://creativecommons.org/ns#"
   xmlns:rdf="http://www.w3.org/1999/02/22-rdf-syntax-ns#"
   xmlns:svg="http://www.w3.org/2000/svg"
   xmlns="http://www.w3.org/2000/svg"
   xmlns:sodipodi="http://sodipodi.sourceforge.net/DTD/sodipodi-0.dtd"
   xmlns:inkscape="http://www.inkscape.org/namespaces/inkscape"
   viewBox="0 0 558.27442 233.68954"
   height="233.68954"
   width="558.27441"
   xml:space="preserve"
   id="svg2"
   version="1.1"
   sodipodi:docname="neo.svg"
   inkscape:version="0.92.3 (2405546, 2018-03-11)"><sodipodi:namedview
     pagecolor="#ffffff"
     bordercolor="#666666"
     borderopacity="1"
     objecttolerance="10"
     gridtolerance="10"
     guidetolerance="10"
     inkscape:pageopacity="0"
     inkscape:pageshadow="2"
     inkscape:window-width="2260"
     inkscape:window-height="1491"
     id="namedview899"
     showgrid="false"
     inkscape:pagecheckerboard="true"
     inkscape:zoom="1.5659442"
     inkscape:cx="279.38813"
     inkscape:cy="98.555017"
     inkscape:window-x="3193"
     inkscape:window-y="776"
     inkscape:window-maximized="0"
     inkscape:current-layer="svg2" /><metadata
     id="metadata8"><rdf:RDF><cc:Work
         rdf:about=""><dc:format>image/svg+xml</dc:format><dc:type
           rdf:resource="http://purl.org/dc/dcmitype/StillImage" /><dc:title></dc:title></cc:Work></rdf:RDF></metadata><defs
     id="defs6"><clipPath
       id="clipPath18"
       clipPathUnits="userSpaceOnUse"><path
         id="path16"
         d="M 0,331.758 H 653.28 V 0 H 0 Z"
         inkscape:connector-curvature="0" /></clipPath></defs><g
     transform="matrix(1.3333333,0,0,-1.3333333,-156.13186,356.30652)"
     id="g10"><g
       id="g12"><g
         clip-path="url(#clipPath18)"
         id="g14"><g
           transform="translate(251.0009,92.0569)"
           id="g20"><path
             id="path22"
             style="fill:#2f4090;fill-opacity:1;fill-rule:nonzero;stroke:none"
             d="m 0,0 h -20.642 c -26.612,33.437 -53.269,66.931 -79.926,100.425 -0.1,-0.04 -0.199,-0.081 -0.298,-0.121 V 0.218 c -1.203,-0.354 -31.33,-0.43 -33.036,-0.108 v 174.86 l 24.142,0.203 c 25.438,-31.418 50.945,-62.921 76.451,-94.424 l 0.337,0.129 V 175.14 H 0 Z"
             inkscape:connector-curvature="0" /></g><g
           transform="translate(492.8137,163.7743)"
           id="g24"><path
             id="path26"
             style="fill:#2f4090;fill-opacity:1;fill-rule:nonzero;stroke:none"
             d="m 0,0 c 0.127,7.253 -0.153,13.362 -1.38,19.396 -1.041,5.125 -2.702,10.012 -5.778,14.315 -2.975,4.161 -6.864,7.029 -11.866,8.337 -2.781,0.728 -5.594,0.591 -8.397,0.393 -6.118,-0.433 -11.097,-3.042 -14.593,-8.152 -1.136,-1.661 -2.106,-3.463 -2.936,-5.299 -1.885,-4.168 -2.886,-8.604 -3.576,-13.107 -1.268,-8.28 -1.662,-16.605 -1.179,-24.969 0.277,-4.792 0.876,-9.54 2.07,-14.198 1.172,-4.577 2.841,-8.941 5.662,-12.789 2.939,-4.008 6.749,-6.765 11.628,-7.904 3.461,-0.809 6.953,-0.773 10.447,-0.173 4.142,0.712 7.61,2.653 10.442,5.743 2.266,2.474 3.875,5.352 5.104,8.451 2.355,5.937 3.408,12.16 3.853,18.488 C -0.204,-7.282 -0.128,-3.082 0,0 m 42.991,-1.062 c -0.085,-5.003 -0.199,-9.988 -0.772,-14.955 -1.01,-8.753 -3.162,-17.181 -7.233,-25.044 -6.504,-12.566 -16.585,-21.042 -29.799,-25.893 -5.963,-2.189 -12.132,-3.465 -18.435,-4.184 -5.859,-0.667 -11.734,-0.793 -17.608,-0.51 -9.701,0.468 -19.1,2.34 -27.919,6.578 -12.43,5.973 -21.135,15.519 -26.693,28.036 -3.253,7.326 -5.159,15.021 -6.063,22.971 -0.863,7.584 -0.895,15.193 -0.244,22.783 0.9,10.481 3.488,20.533 8.388,29.901 8.164,15.609 20.979,25.236 38.022,29.346 9.262,2.234 18.66,2.559 28.122,1.886 7.229,-0.514 14.287,-1.865 21.091,-4.401 16.161,-6.023 27.032,-17.362 33.289,-33.287 2.762,-7.029 4.405,-14.339 5.104,-21.849 0.352,-3.783 0.507,-7.584 0.75,-11.378"
             inkscape:connector-curvature="0" /></g><g
           transform="translate(330.6465,175.4837)"
           id="g28"><path
             id="path30"
             style="fill:#2f4090;fill-opacity:1;fill-rule:nonzero;stroke:none"
             d="m 0,0 c 1.403,0.156 3.176,0.296 4.931,0.559 4.006,0.601 7.757,1.858 10.979,4.432 2.611,2.087 4.568,4.621 5.533,7.86 1.883,6.313 -0.511,13.768 -5.77,17.992 -1.522,1.223 -3.224,2.082 -5.102,2.605 -3.284,0.913 -6.558,0.727 -9.789,-0.201 -8.643,-2.483 -14.971,-7.939 -19.586,-15.505 -0.657,-1.077 -1.101,-2.327 -1.427,-3.555 -0.944,-3.553 -0.074,-6.675 2.661,-9.145 1.048,-0.946 2.272,-1.755 3.534,-2.394 C -9.745,0.474 -5.097,-0.001 0,0 m -24.793,-22.563 c -0.349,-6.99 0.515,-13.494 3.612,-19.55 3.575,-6.993 9.397,-11.002 17.032,-12.517 4.163,-0.827 8.355,-0.634 12.555,-0.457 12.248,0.514 23.69,4.016 34.669,9.266 0.486,0.232 0.979,0.447 1.668,0.761 2.342,-8.166 4.487,-16.291 6.701,-24.475 -0.887,-0.6 -1.683,-1.177 -2.515,-1.695 -6.64,-4.141 -13.857,-6.91 -21.395,-8.872 -8.551,-2.225 -17.256,-3.269 -26.09,-3.368 -7.284,-0.08 -14.516,0.355 -21.657,1.861 -9.213,1.944 -17.727,5.443 -25.102,11.426 -7.356,5.966 -12.47,13.548 -16.001,22.264 -2.707,6.679 -4.319,13.641 -5.313,20.759 -0.885,6.33 -1.219,12.685 -0.839,19.071 0.602,10.123 2.333,20.013 6.197,29.445 4.293,10.479 10.761,19.287 20.073,25.874 7.302,5.165 15.446,8.299 24.199,9.927 4.037,0.751 8.111,1.285 12.221,1.231 C 8.38,58.213 20.746,55.102 31.93,48 41.183,42.124 47.672,33.878 52.031,23.886 55.077,16.902 56.84,9.577 57.857,2.054 c 1.036,-7.663 1.139,-15.365 0.884,-23.08 -0.011,-0.345 -0.07,-1.516 -0.07,-1.516 -3.346,-0.046 -6.979,-0.014 -10.414,-0.02 -3.509,-0.005 -7.018,-10e-4 -10.527,-10e-4 H 27.351 16.973 6.595 -3.933 -14.312 Z"
             inkscape:connector-curvature="0" /></g></g></g></g></svg>